# xmcd
# Track frame offsets:
# 150
# 16629
# 33657
# 49581
# 66648
# 82454
# 102177
# 130915
# 148582
# 170107
# 189489
# 203799
# 222465
#
# Disc length: 3291 seconds
# Revision: 0
# Processed by: cddbd v1.5.1PL2 Copyright (c) Steve Scherf et al.
# Submitted via: VisiTrax 2.9.10.228 - For more info visit www.synapsa.com
#
DISCID=c80cd90d
DTITLE=Karen Nash - Gas, Food and Lodging
DYEAR=2006
DGENRE=
TTITLE0=Tennessee
TTITLE1=Here Comes the Last Time
TTITLE2=I Wish He Didn't Love Me
TTITLE3=Gas, Food and Lodging
TTITLE4=Talkin' About  the Weather
TTITLE5=No Vacancy Sign
TTITLE6=New Years Eve
TTITLE7=Seven Curses
TTITLE8=Asleep At The Wheel
TTITLE9=Gone
TTITLE10=Truck Stop Motel
TTITLE11=If My Life
TTITLE12=Leaveing Nashville
EXTD=
EXTT0=
EXTT1=
EXTT2=
EXTT3=
EXTT4=
EXTT5=
EXTT6=
EXTT7=
EXTT8=
EXTT9=
EXTT10=
EXTT11=
EXTT12=
PLAYORDER=
